                                                                        S      1
,,7Hheim v1,7Hheim v1,7Hunknown,7Hunknown,32,38,7,99,15,,1.,2,2HMM,1,   G      1
0.08,15H20250526.211336,0.01,10000.,7Hunknown,7Hunknown,11,0,15H20240706G      2
.132125;                                                                G      3
     186       1                                                00000000D      1
     186            -153       1       0                               0D      2
     514       2                                                00010000D      3
     514                       1       1                               0D      4
     510       3                                                00010000D      5
     510            -153       1       1                               0D      6
     510       4                                                00010000D      7
     510            -153       1       1                               0D      8
     510       5                                                00010000D      9
     510            -153       1       1                               0D     10
     510       6                                                00010000D     11
     510            -153       1       1                               0D     12
     510       7                                                00010000D     13
     510            -153       1       1                               0D     14
     510       8                                                00010000D     15
     510            -153       1       1                               0D     16
     510       9                                                00010000D     17
     510            -153       1       1                               0D     18
     510      10                                                00010000D     19
     510            -153       1       1                               0D     20
     510      11                                                00010000D     21
     510            -153       1       1                               0D     22
     510      12                                                00010000D     23
     510            -153       1       1                               0D     24
     510      13                                                00010000D     25
     510            -153       1       1                               0D     26
     510      14                                                00010000D     27
     510            -153       1       1                               0D     28
     508      15                                                00010000D     29
     508                       2       1                               0D     30
     508      17                                                00010000D     31
     508                       2       1                               0D     32
     508      19                                                00010000D     33
     508                       2       1                               0D     34
     508      21                                                00010000D     35
     508                       2       1                               0D     36
     508      23                                                00010000D     37
     508                       1       1                               0D     38
     508      24                                                00010000D     39
     508                       2       1                               0D     40
     508      26                                                00010000D     41
     508                       2       1                               0D     42
     508      28                                                00010000D     43
     508                       2       1                               0D     44
     508      30                                                00010000D     45
     508                       2       1                               0D     46
     508      32                                                00010000D     47
     508                       1       1                               0D     48
     508      33                                                00010000D     49
     508                       2       1                               0D     50
     508      35                                                00010000D     51
     508                       2       1                               0D     52
     508      37                                                00010000D     53
     508                       2       1                               0D     54
     126      39                                                00010000D     55
     126       0               7       0                               0D     56
     126      46                                                00010000D     57
     126       0               7       0                               0D     58
     126      53                                                00010000D     59
     126       0               5       0                               0D     60
     126      58                                                00010000D     61
     126       0               4       0                               0D     62
     126      62                                                00010000D     63
     126       0               5       0                               0D     64
     126      67                                                00010000D     65
     126       0               5       0                               0D     66
     126      72                                                00010000D     67
     126       0               8       0                               0D     68
     126      80                                                00010000D     69
     126       0               3       0                               0D     70
     126      83                                                00010000D     71
     126       0               5       0                               0D     72
     126      88                                                00010000D     73
     126       0               3       0                               0D     74
     126      91                                                00010000D     75
     126       0               5       0                               0D     76
     126      96                                                00010000D     77
     126       0               8       0                               0D     78
     126     104                                                00010000D     79
     126       0               7       0                               0D     80
     126     111                                                00010000D     81
     126       0               7       0                               0D     82
     126     118                                                00010000D     83
     126       0               3       0                               0D     84
     126     121                                                00010000D     85
     126       0              24       0                               0D     86
     126     145                                                00010000D     87
     126       0              25       0                               0D     88
     126     170                                                00010000D     89
     126       0               3       0                               0D     90
     126     173                                                00010000D     91
     126       0               4       0                               0D     92
     126     177                                                00010000D     93
     126       0               5       0                               0D     94
     126     182                                                00010000D     95
     126       0               5       0                               0D     96
     126     187                                                00010000D     97
     126       0               4       0                               0D     98
     126     191                                                00010000D     99
     126       0               5       0                               0D    100
     126     196                                                00010000D    101
     126       0               7       0                               0D    102
     126     203                                                00010000D    103
     126       0               2       0                               0D    104
     126     205                                                00010000D    105
     126       0              10       0                               0D    106
     126     215                                                00010000D    107
     126       0               3       0                               0D    108
     126     218                                                00010000D    109
     126       0               4       0                               0D    110
     126     222                                                00010000D    111
     126       0              10       0                               0D    112
     126     232                                                00010000D    113
     126       0               6       0                               0D    114
     126     238                                                00010000D    115
     126       0               4       0                               0D    116
     126     242                                                00010000D    117
     126       0               5       0                               0D    118
     126     247                                                00010000D    119
     126       0               9       0                               0D    120
     126     256                                                00010000D    121
     126       0               4       0                               0D    122
     128     260                                                00010000D    123
     128       0    -153      22       0                               0D    124
     128     282                                                00010000D    125
     128       0    -153      14       0                               0D    126
     128     296                                                00010000D    127
     128       0    -153      17       0                               0D    128
     128     313                                                00010000D    129
     128       0    -153      16       0                               0D    130
     128     329                                                00010000D    131
     128       0    -153      21       0                               0D    132
     128     350                                                00010000D    133
     128       0    -153      17       0                               0D    134
     128     367                                                00010000D    135
     128       0    -153      11       0                               0D    136
     128     378                                                00010000D    137
     128       0    -153      15       0                               0D    138
     128     393                                                00010000D    139
     128       0    -153       4       0                               0D    140
     128     397                                                00010000D    141
     128       0    -153      21       0                               0D    142
     128     418                                                00010000D    143
     128       0    -153      18       0                               0D    144
     128     436                                                00010000D    145
     128       0    -153      21       0                               0D    146
     502     457                                                00010000D    147
     502                      11       1                               0D    148
     504     468                                                00010001D    149
     504                       9       1                               0D    150
     406     477                                                00000000D    151
     406                       1      15                               0D    152
     314     478                                                00000200D    153
     314                       2       0                               0D    154
186,3,1,0,0,1,151;                                                     1P      1
514,12,5,1,7,1,9,1,11,1,13,1,15,1,17,1,19,1,21,1,23,1,25,1,27,1;       3P      2
510,123,1,1,29;                                                        5P      3
510,125,1,1,31;                                                        7P      4
510,127,1,1,33;                                                        9P      5
510,129,2,1,35,37;                                                    11P      6
510,131,1,1,39;                                                       13P      7
510,133,1,1,41;                                                       15P      8
510,135,1,1,43;                                                       17P      9
510,137,1,1,45;                                                       19P     10
510,139,1,1,47;                                                       21P     11
510,141,1,1,49;                                                       23P     12
510,143,1,1,51;                                                       25P     13
510,145,1,1,53;                                                       27P     14
508,7,0,149,1,1,0,0,149,2,1,0,0,149,3,1,0,0,149,4,0,0,0,149,5,0,      29P     15
0,0,149,6,0,0,0,149,3,0,0;                                            29P     16
508,6,0,149,7,1,0,0,149,8,1,0,0,149,1,0,0,0,149,2,0,0,0,149,8,0,      31P     17
0,0,149,9,1,0;                                                        31P     18
508,7,0,149,5,1,0,0,149,10,1,0,0,149,11,1,0,0,149,12,1,0,0,149,       33P     19
10,0,0,0,149,4,1,0,0,149,6,1,0;                                       33P     20
508,6,0,149,13,0,0,0,149,14,0,0,0,149,15,1,0,0,149,11,0,0,0,149,      35P     21
12,0,0,0,149,15,0,0;                                                  35P     22
508,2,0,149,16,1,0,0,149,17,1,0;                                      37P     23
508,7,0,149,13,1,0,0,149,14,1,0,0,149,18,1,0,0,149,19,0,0,0,149,      39P     24
20,0,0,0,149,21,0,0,0,149,18,0,0;                                     39P     25
508,7,0,149,20,1,0,0,149,22,1,0,0,149,23,1,0,0,149,24,1,0,0,149,      41P     26
22,0,0,0,149,19,1,0,0,149,21,1,0;                                     41P     27
508,6,0,149,24,0,0,0,149,25,1,0,0,149,7,0,0,0,149,9,0,0,0,149,        43P     28
25,0,0,0,149,23,0,0;                                                  43P     29
508,5,0,149,26,0,0,0,149,27,1,0,0,149,16,0,0,0,149,17,0,0,0,149,      45P     30
27,0,0;                                                               45P     31
508,1,0,149,26,1,0;                                                   47P     32
508,6,0,149,7,0,0,0,149,28,1,0,0,149,29,1,0,0,149,30,1,0,0,149,       49P     33
28,0,0,0,149,9,0,0;                                                   49P     34
508,6,0,149,30,0,0,0,149,31,1,0,0,149,32,0,0,0,149,33,0,0,0,149,      51P     35
31,0,0,0,149,29,0,0;                                                  51P     36
508,6,0,149,33,1,0,0,149,34,1,0,0,149,7,1,0,0,149,9,1,0,0,149,        53P     37
34,0,0,0,149,32,1,0;                                                  53P     38
126,4,2,0,0,0,0,-3.14159265358979,-3.14159265358979,                  55P     39
-3.14159265358979,-1.5707963267949,-1.5707963267949,0.,0.,0.,1.,      55P     40
0.707106781186547,1.,0.707106781186548,1.,9.,-5.76794919243112,       55P     41
-1.10218211923262D-15,9.,-5.76794919243112,-9.,                       55P     42
-5.51091059616309D-16,-5.76794919243112,-9.,-9.,                      55P     43
-5.76794919243112,-9.,-9.,-5.76794919243112,0.,                       55P     44
-3.14159265358979,0.,0.,0.,0.;                                        55P     45
126,4,2,0,0,0,0,0.,0.,0.,1.5707963267949,1.5707963267949,             57P     46
3.14159265358979,3.14159265358979,3.14159265358979,1.,                57P     47
0.707106781186548,1.,0.707106781186547,1.,-9.,-5.76794919243112,      57P     48
0.,-9.,-5.76794919243112,9.,-5.51091059616309D-16,                    57P     49
-5.76794919243112,9.,9.,-5.76794919243112,9.,9.,                      57P     50
-5.76794919243112,1.10218211923262D-15,0.,3.14159265358979,0.,        57P     51
0.,0.;                                                                57P     52
126,2,2,0,0,0,0,-3.14159265358979,-3.14159265358979,                  59P     53
-3.14159265358979,-2.09439510239319,-2.09439510239319,                59P     54
-2.09439510239319,1.,0.866025403784444,1.,9.,-5.76794919243112,       59P     55
0.,9.,-6.92264973081038,0.,10.,-7.5,0.,-3.14159265358979,             59P     56
-2.09439510239319,0.,0.,0.;                                           59P     57
126,2,2,0,0,0,0,-1.5707963267949,-1.5707963267949,                    61P     58
-1.5707963267949,0.,0.,0.,1.,0.707106781186547,1.,                    61P     59
6.12323399573677D-16,-7.5,10.,10.,-7.5,10.,10.,-7.5,0.,               61P     60
-1.5707963267949,0.,0.,0.,0.;                                         61P     61
126,2,2,0,0,0,0,-3.14159265358979,-3.14159265358979,                  63P     62
-3.14159265358979,-1.5707963267949,-1.5707963267949,                  63P     63
-1.5707963267949,1.,0.707106781186547,1.,-10.,-7.5,                   63P     64
1.22464679914735D-15,-10.,-7.5,10.,6.12323399573677D-16,-7.5,         63P     65
10.,-3.14159265358979,-1.5707963267949,0.,0.,0.;                      63P     66
126,4,2,0,0,0,0,0.,0.,0.,1.5707963267949,1.5707963267949,             65P     67
3.14159265358979,3.14159265358979,3.14159265358979,1.,                65P     68
0.707106781186547,1.,0.707106781186547,1.,10.,-7.5,0.,10.,-7.5,       65P     69
-10.,6.12323399573677D-16,-7.5,-10.,-10.,-7.5,-10.,-10.,-7.5,         65P     70
-1.22464679914735D-15,0.,3.14159265358979,0.,0.,0.;                   65P     71
126,6,2,0,0,0,0,-1.5707963267949,-1.5707963267949,                    67P     72
-1.5707963267949,0.,0.,1.5707963267949,1.5707963267949,               67P     73
3.14159265358979,3.14159265358979,3.14159265358979,1.,                67P     74
0.707106781186548,1.,0.707106781186548,1.,0.707106781186547,1.,       67P     75
5.51091059616309D-16,0.,9.,9.,0.,9.,9.,0.,0.,9.,0.,-9.,               67P     76
5.51091059616309D-16,0.,-9.,-9.,0.,-9.,-9.,0.,                        67P     77
-1.10218211923262D-15,-1.5707963267949,3.14159265358979,0.,0.,        67P     78
0.;                                                                   67P     79
126,1,1,0,0,1,0,0.,0.,0.640883243603458,0.640883243603458,1.,1.,      69P     80
-9.,0.,0.,-9.,-5.76794919243112,0.,0.,0.640883243603458,0.,0.,        69P     81
0.;                                                                   69P     82
126,2,2,0,0,0,0,3.14159265358979,3.14159265358979,                    71P     83
3.14159265358979,4.71238898038469,4.71238898038469,                   71P     84
4.71238898038469,1.,0.707106781186548,1.,-9.,0.,                      71P     85
-1.10218211923262D-15,-9.,0.,9.,-1.65327317884893D-15,0.,9.,          71P     86
3.14159265358979,4.71238898038469,0.,0.,0.;                           71P     87
126,2,2,0,0,0,0,-1.5707963267949,-1.5707963267949,                    73P     88
-1.5707963267949,0.,0.,0.,1.,0.707106781186549,1.,0.,-7.5,10.,        73P     89
0.,-7.5,12.,0.,-5.5,12.,-1.5707963267949,0.,0.,0.,0.;                 73P     90
126,2,2,0,0,0,0,1.5707963267949,1.5707963267949,1.5707963267949,      75P     91
3.14159265358979,3.14159265358979,3.14159265358979,1.,                75P     92
0.707106781186548,1.,7.34788079488412D-16,-5.5,12.,-12.,-5.5,         75P     93
12.,-12.,-5.5,1.46957615897682D-15,1.5707963267949,                   75P     94
3.14159265358979,0.,0.,0.;                                            75P     95
126,6,2,0,0,0,0,-3.14159265358979,-3.14159265358979,                  77P     96
-3.14159265358979,-1.5707963267949,-1.5707963267949,0.,0.,            77P     97
1.5707963267949,1.5707963267949,1.5707963267949,1.,                   77P     98
0.707106781186548,1.,0.707106781186548,1.,0.707106781186548,1.,       77P     99
-12.,-5.5,-1.46957615897682D-15,-12.,-5.5,-12.,                       77P    100
7.34788079488412D-16,-5.5,-12.,12.,-5.5,-12.,12.,-5.5,0.,12.,         77P    101
-5.5,12.,7.34788079488412D-16,-5.5,12.,-3.14159265358979,             77P    102
1.5707963267949,0.,0.,0.;                                             77P    103
126,4,2,0,0,0,0,-3.14159265358979,-3.14159265358979,                  79P    104
-3.14159265358979,-1.5707963267949,-1.5707963267949,0.,0.,0.,1.,      79P    105
0.707106781186547,1.,0.707106781186547,1.,12.,5.76794919243112,       79P    106
-1.46957615897682D-15,12.,5.76794919243112,-12.,                      79P    107
-7.34788079488412D-16,5.76794919243112,-12.,-12.,                     79P    108
5.76794919243112,-12.,-12.,5.76794919243112,0.,                       79P    109
-3.14159265358979,0.,0.,0.,0.;                                        79P    110
126,4,2,0,0,0,0,0.,0.,0.,1.5707963267949,1.5707963267949,             81P    111
3.14159265358979,3.14159265358979,3.14159265358979,1.,                81P    112
0.707106781186547,1.,0.707106781186547,1.,-12.,5.76794919243112,      81P    113
0.,-12.,5.76794919243112,12.,-7.34788079488412D-16,                   81P    114
5.76794919243112,12.,12.,5.76794919243112,12.,12.,                    81P    115
5.76794919243112,1.46957615897682D-15,0.,3.14159265358979,0.,0.,      81P    116
0.;                                                                   81P    117
126,1,1,0,0,1,0,-0.480662432702593,-0.480662432702593,                83P    118
0.458333333333333,0.458333333333333,1.,1.,-12.,5.76794919243112,      83P    119
0.,-12.,-5.5,0.,-0.480662432702593,0.458333333333333,0.,0.,0.;        83P    120
126,17,3,0,0,1,0,0.,0.,0.,0.,0.188730807818297,                       85P    121
0.188730807818297,0.377461615636594,0.377461615636594,                85P    122
0.56597568769213,0.56597568769213,0.754489759747666,                  85P    123
0.754489759747666,0.943003831803202,0.943003831803202,                85P    124
1.13151790385874,1.13151790385874,1.32024871167703,                   85P    125
1.32024871167703,1.50897951949533,1.50897951949533,                   85P    126
1.50897951949533,1.50897951949533,1.,1.,1.,1.,1.,1.,1.,1.,1.,1.,      85P    127
1.,1.,1.,1.,1.,1.,1.,1.,4.942,-2.77555756156289D-16,                  85P    128
10.9351102417854,4.942,-0.629102692727658,10.9351102417854,           85P    129
4.81473426165371,-1.29414001967474,10.9951484821515,                  85P    130
4.30828397763815,-2.50901580221506,11.2032870078926,                  85P    131
3.92940434973187,-3.05963907551596,11.3475296318735,                  85P    132
3.060138488522,-3.92890493672583,11.6121369855828,                    85P    133
2.50932823117688,-4.30816210774132,11.7508389356794,                  85P    134
1.29371520901471,-4.81490297982745,11.9459300548816,                  85P    135
0.628380240185118,-4.942,12.,-0.62838024018512,-4.942,12.,            85P    136
-1.29371520901471,-4.81490297982745,11.9459300548816,                 85P    137
-2.50932823117688,-4.30816210774132,11.7508389356794,                 85P    138
-3.060138488522,-3.92890493672583,11.6121369855828,                   85P    139
-3.92940434973188,-3.05963907551596,11.3475296318735,                 85P    140
-4.30828397763815,-2.50901580221506,11.2032870078926,                 85P    141
-4.81473426165371,-1.29414001967474,10.9951484821515,-4.942,          85P    142
-0.629102692727657,10.9351102417854,-4.942,1.38777878078145D-16,      85P    143
10.9351102417854,0.,1.50897951949533,0.,0.,0.;                        85P    144
126,17,3,0,0,1,0,1.50897951949533,1.50897951949533,                   87P    145
1.50897951949533,1.50897951949533,1.69771032731363,                   87P    146
1.69771032731363,1.88644113513193,1.88644113513193,                   87P    147
2.07495520718746,2.07495520718746,2.263469279243,2.263469279243,      87P    148
2.45198335129853,2.45198335129853,2.64049742335407,                   87P    149
2.64049742335407,2.82922823117237,2.82922823117237,                   87P    150
3.01795903899066,3.01795903899066,3.01795903899066,                   87P    151
3.01795903899066,1.,1.,1.,1.,1.,1.,1.,1.,1.,1.,1.,1.,1.,1.,1.,        87P    152
1.,1.,1.,-4.942,-1.38777878078145D-16,10.9351102417854,-4.942,        87P    153
0.629102692727657,10.9351102417854,-4.81473426165371,                 87P    154
1.29414001967474,10.9951484821515,-4.30828397763815,                  87P    155
2.50901580221506,11.2032870078926,-3.92940434973187,                  87P    156
3.05963907551596,11.3475296318735,-3.060138488522,                    87P    157
3.92890493672583,11.6121369855828,-2.50932823117688,                  87P    158
4.30816210774132,11.7508389356794,-1.29371520901471,                  87P    159
4.81490297982745,11.9459300548816,-0.628380240185119,4.942,12.,       87P    160
0.62838024018512,4.942,12.,1.29371520901471,4.81490297982745,         87P    161
11.9459300548816,2.50932823117688,4.30816210774132,                   87P    162
11.7508389356794,3.060138488522,3.92890493672583,                     87P    163
11.6121369855828,3.92940434973188,3.05963907551596,                   87P    164
11.3475296318735,4.30828397763815,2.50901580221506,                   87P    165
11.2032870078926,4.81473426165371,1.29414001967474,                   87P    166
10.9951484821515,4.942,0.629102692727657,10.9351102417854,4.942,      87P    167
1.38777878078145D-16,10.9351102417854,1.50897951949533,               87P    168
3.01795903899066,0.,0.,0.;                                            87P    169
126,2,2,0,0,0,0,0.,0.,0.,1.0471975511966,1.0471975511966,             89P    170
1.0471975511966,1.,0.866025403784439,1.,12.,5.76794919243112,0.,      89P    171
12.,6.92264973081038,0.,11.,7.5,0.,0.,1.0471975511966,0.,0.,0.;       89P    172
126,2,2,0,0,0,0,-1.5707963267949,-1.5707963267949,                    91P    173
-1.5707963267949,0.,0.,0.,1.,0.707106781186547,1.,                    91P    174
6.73555739531044D-16,7.5,11.,11.,7.5,11.,11.,7.5,0.,                  91P    175
-1.5707963267949,0.,0.,0.,0.;                                         91P    176
126,2,2,0,0,0,0,-3.14159265358979,-3.14159265358979,                  93P    177
-3.14159265358979,-1.5707963267949,-1.5707963267949,                  93P    178
-1.5707963267949,1.,0.707106781186547,1.,-11.,7.5,                    93P    179
1.34711147906209D-15,-11.,7.5,11.,6.73555739531044D-16,7.5,11.,       93P    180
-3.14159265358979,-1.5707963267949,0.,0.,0.;                          93P    181
126,4,2,0,0,0,0,0.,0.,0.,1.5707963267949,1.5707963267949,             95P    182
3.14159265358979,3.14159265358979,3.14159265358979,1.,                95P    183
0.707106781186547,1.,0.707106781186547,1.,11.,7.5,0.,11.,7.5,         95P    184
-11.,6.73555739531044D-16,7.5,-11.,-11.,7.5,-11.,-11.,7.5,            95P    185
-1.34711147906209D-15,0.,3.14159265358979,0.,0.,0.;                   95P    186
126,2,2,0,0,0,0,1.5707963267949,1.5707963267949,1.5707963267949,      97P    187
3.14159265358979,3.14159265358979,3.14159265358979,1.,                97P    188
0.707106781186548,1.,0.,7.5,11.,0.,7.5,9.,0.,5.5,9.,                  97P    189
1.5707963267949,3.14159265358979,0.,0.,0.;                            97P    190
126,2,2,0,0,0,0,1.5707963267949,1.5707963267949,1.5707963267949,      99P    191
3.14159265358979,3.14159265358979,3.14159265358979,1.,                99P    192
0.707106781186547,1.,5.51091059616309D-16,5.5,9.,-9.,5.5,9.,-9.,      99P    193
5.5,1.10218211923262D-15,1.5707963267949,3.14159265358979,0.,0.,      99P    194
0.;                                                                   99P    195
126,6,2,0,0,0,0,-3.14159265358979,-3.14159265358979,                 101P    196
-3.14159265358979,-1.5707963267949,-1.5707963267949,0.,0.,           101P    197
1.5707963267949,1.5707963267949,1.5707963267949,1.,                  101P    198
0.707106781186547,1.,0.707106781186548,1.,0.707106781186548,1.,      101P    199
-9.,5.5,-1.10218211923262D-15,-9.,5.5,-9.,5.51091059616309D-16,      101P    200
5.5,-9.,9.,5.5,-9.,9.,5.5,0.,9.,5.5,9.,5.51091059616309D-16,5.5,     101P    201
9.,-3.14159265358979,1.5707963267949,0.,0.,0.;                       101P    202
126,1,1,0,0,1,0,-0.611111111111111,-0.611111111111111,0.,0.,1.,      103P    203
1.,-9.,5.5,0.,-9.,0.,0.,-0.611111111111111,0.,0.,0.,0.;              103P    204
126,8,2,0,1,0,0,-3.14159265358979,-3.14159265358979,                 105P    205
-3.14159265358979,-1.5707963267949,-1.5707963267949,0.,0.,           105P    206
1.5707963267949,1.5707963267949,3.14159265358979,                    105P    207
3.14159265358979,3.14159265358979,1.,0.707106781186547,1.,           105P    208
0.707106781186548,1.,0.707106781186548,1.,0.707106781186547,1.,      105P    209
-4.942,-6.05220448138622D-16,37.,-4.942,-4.942,37.,                  105P    210
3.02610224069311D-16,-4.942,37.,4.942,-4.942,37.,4.942,0.,37.,       105P    211
4.942,4.942,37.,3.02610224069311D-16,4.942,37.,-4.942,4.942,37.,     105P    212
-4.942,6.05220448138622D-16,37.,-3.14159265358979,                   105P    213
3.14159265358979,0.,0.,0.;                                           105P    214
126,1,1,0,0,1,0,-5.,-5.,0.21297795164292,0.21297795164292,1.,1.,     107P    215
-4.942,0.,37.,-4.942,0.,10.9351102417854,-5.,0.21297795164292,       107P    216
0.,0.,0.;                                                            107P    217
126,2,2,0,0,0,0,0.,0.,0.,0.981765356578623,0.981765356578623,        109P    218
0.981765356578623,1.,0.881917103688196,1.,0.,0.,9.,0.,               109P    219
-4.81070235442364,9.,0.,-7.48331477354788,5.,0.,                     109P    220
0.981765356578623,0.,0.,0.;                                          109P    221
126,6,2,0,0,0,0,-1.5707963267949,-1.5707963267949,                   111P    222
-1.5707963267949,0.,0.,1.5707963267949,1.5707963267949,              111P    223
3.14159265358979,3.14159265358979,3.14159265358979,1.,               111P    224
0.707106781186548,1.,0.707106781186548,1.,0.707106781186548,1.,      111P    225
3.06161699786838D-16,-7.48331477354788,5.,5.,-7.48331477354788,      111P    226
5.,5.,-7.48331477354788,0.,5.,-7.48331477354788,-5.,                 111P    227
3.06161699786838D-16,-7.48331477354788,-5.,-5.,                      111P    228
-7.48331477354788,-5.,-5.,-7.48331477354788,                         111P    229
-6.12323399573677D-16,-1.5707963267949,3.14159265358979,0.,0.,       111P    230
0.;                                                                  111P    231
126,2,2,0,0,0,0,-3.14159265358979,-3.14159265358979,                 113P    232
-3.14159265358979,-1.5707963267949,-1.5707963267949,                 113P    233
-1.5707963267949,1.,0.707106781186548,1.,-5.,-7.48331477354788,      113P    234
6.12323399573677D-16,-5.,-7.48331477354788,5.,                       113P    235
3.06161699786838D-16,-7.48331477354788,5.,-3.14159265358979,         113P    236
-1.5707963267949,0.,0.,0.;                                           113P    237
126,1,1,0,0,1,0,-1.49666295470958,-1.49666295470958,                 115P    238
1.49666295470958,1.49666295470958,1.,1.,-5.,-7.48331477354788,       115P    239
0.,-5.,7.48331477354788,0.,-1.49666295470958,1.49666295470958,       115P    240
0.,0.,0.;                                                            115P    241
126,2,2,0,0,0,0,1.5707963267949,1.5707963267949,1.5707963267949,     117P    242
3.14159265358979,3.14159265358979,3.14159265358979,1.,               117P    243
0.707106781186548,1.,3.06161699786838D-16,7.48331477354788,5.,       117P    244
-5.,7.48331477354788,5.,-5.,7.48331477354788,                        117P    245
6.12323399573677D-16,1.5707963267949,3.14159265358979,0.,0.,0.;      117P    246
126,6,2,0,0,0,0,-3.14159265358979,-3.14159265358979,                 119P    247
-3.14159265358979,-1.5707963267949,-1.5707963267949,0.,0.,           119P    248
1.5707963267949,1.5707963267949,1.5707963267949,1.,                  119P    249
0.707106781186548,1.,0.707106781186548,1.,0.707106781186548,1.,      119P    250
-5.,7.48331477354788,-6.12323399573677D-16,-5.,7.48331477354788,     119P    251
-5.,3.06161699786838D-16,7.48331477354788,-5.,5.,                    119P    252
7.48331477354788,-5.,5.,7.48331477354788,0.,5.,7.48331477354788,     119P    253
5.,3.06161699786838D-16,7.48331477354788,5.,-3.14159265358979,       119P    254
1.5707963267949,0.,0.,0.;                                            119P    255
126,2,2,0,0,0,0,-0.981765356578623,-0.981765356578623,               121P    256
-0.981765356578623,0.,0.,0.,1.,0.881917103688196,1.,0.,              121P    257
7.48331477354788,5.,0.,4.81070235442364,9.,0.,0.,9.,                 121P    258
-0.981765356578623,0.,0.,0.,0.;                                      121P    259
128,2,8,2,2,0,1,0,0,1,2.09439510239319,2.09439510239319,             123P    260
2.09439510239319,3.14159265358979,3.14159265358979,                  123P    261
3.14159265358979,-3.14159265358979,-3.14159265358979,                123P    262
-3.14159265358979,-1.5707963267949,-1.5707963267949,0.,0.,           123P    263
1.5707963267949,1.5707963267949,3.14159265358979,                    123P    264
3.14159265358979,3.14159265358979,1.,0.866025403784444,1.,           123P    265
0.707106781186548,0.612372435695798,0.707106781186548,1.,            123P    266
0.866025403784444,1.,0.707106781186548,0.612372435695798,            123P    267
0.707106781186548,1.,0.866025403784444,1.,0.707106781186548,         123P    268
0.612372435695798,0.707106781186548,1.,0.866025403784444,1.,         123P    269
0.707106781186548,0.612372435695798,0.707106781186548,1.,            123P    270
0.866025403784444,1.,10.,-7.5,0.,9.,-6.92264973081038,0.,9.,         123P    271
-5.76794919243112,0.,10.,-7.5,-10.,9.,-6.92264973081038,-9.,9.,      123P    272
-5.76794919243112,-9.,0.,-7.5,-10.,0.,-6.92264973081038,-9.,0.,      123P    273
-5.76794919243112,-9.,-10.,-7.5,-10.,-9.,-6.92264973081038,-9.,      123P    274
-9.,-5.76794919243112,-9.,-10.,-7.5,0.,-9.,-6.92264973081038,0.,     123P    275
-9.,-5.76794919243112,0.,-10.,-7.5,10.,-9.,-6.92264973081038,9.,     123P    276
-9.,-5.76794919243112,9.,0.,-7.5,10.,0.,-6.92264973081038,9.,0.,     123P    277
-5.76794919243112,9.,10.,-7.5,10.,9.,-6.92264973081038,9.,9.,        123P    278
-5.76794919243112,9.,10.,-7.5,0.,9.,-6.92264973081038,0.,9.,         123P    279
-5.76794919243112,0.,2.09439510239319,3.14159265358979,              123P    280
-3.14159265358979,3.14159265358979;                                  123P    281
128,1,8,1,2,0,1,0,0,1,-0.640883243603458,-0.640883243603458,0.,      125P    282
0.,-3.14159265358979,-3.14159265358979,-3.14159265358979,            125P    283
-1.5707963267949,-1.5707963267949,0.,0.,1.5707963267949,             125P    284
1.5707963267949,3.14159265358979,3.14159265358979,                   125P    285
3.14159265358979,1.,1.,0.707106781186548,0.707106781186548,1.,       125P    286
1.,0.707106781186548,0.707106781186548,1.,1.,0.707106781186548,      125P    287
0.707106781186548,1.,1.,0.707106781186548,0.707106781186548,1.,      125P    288
1.,-9.,-5.76794919243112,0.,-9.,0.,0.,-9.,-5.76794919243112,9.,      125P    289
-9.,0.,9.,0.,-5.76794919243112,9.,0.,0.,9.,9.,-5.76794919243112,     125P    290
9.,9.,0.,9.,9.,-5.76794919243112,0.,9.,0.,0.,9.,                     125P    291
-5.76794919243112,-9.,9.,0.,-9.,0.,-5.76794919243112,-9.,0.,0.,      125P    292
-9.,-9.,-5.76794919243112,-9.,-9.,0.,-9.,-9.,-5.76794919243112,      125P    293
0.,-9.,0.,0.,-0.640883243603458,0.,-3.14159265358979,                125P    294
3.14159265358979;                                                    125P    295
128,2,8,2,2,0,1,0,0,1,0.,0.,0.,1.5707963267949,1.5707963267949,      127P    296
1.5707963267949,-3.14159265358979,-3.14159265358979,                 127P    297
-3.14159265358979,-1.5707963267949,-1.5707963267949,0.,0.,           127P    298
1.5707963267949,1.5707963267949,3.14159265358979,                    127P    299
3.14159265358979,3.14159265358979,1.,0.707106781186549,1.,           127P    300
0.707106781186548,0.500000000000001,0.707106781186548,1.,            127P    301
0.707106781186549,1.,0.707106781186548,0.500000000000001,            127P    302
0.707106781186548,1.,0.707106781186549,1.,0.707106781186548,         127P    303
0.500000000000001,0.707106781186548,1.,0.707106781186549,1.,         127P    304
0.707106781186548,0.500000000000001,0.707106781186548,1.,            127P    305
0.707106781186549,1.,0.,-7.5,10.,0.,-7.5,12.,0.,-5.5,12.,-10.,       127P    306
-7.5,10.,-12.,-7.5,12.,-12.,-5.5,12.,-10.,-7.5,0.,-12.,-7.5,0.,      127P    307
-12.,-5.5,0.,-10.,-7.5,-10.,-12.,-7.5,-12.,-12.,-5.5,-12.,0.,        127P    308
-7.5,-10.,0.,-7.5,-12.,0.,-5.5,-12.,10.,-7.5,-10.,12.,-7.5,-12.,     127P    309
12.,-5.5,-12.,10.,-7.5,0.,12.,-7.5,0.,12.,-5.5,0.,10.,-7.5,10.,      127P    310
12.,-7.5,12.,12.,-5.5,12.,0.,-7.5,10.,0.,-7.5,12.,0.,-5.5,12.,       127P    311
0.,1.5707963267949,-3.14159265358979,3.14159265358979;               127P    312
128,1,8,1,2,0,1,0,0,1,-0.458333333333333,-0.458333333333333,         129P    313
0.480662432702593,0.480662432702593,-3.14159265358979,               129P    314
-3.14159265358979,-3.14159265358979,-1.5707963267949,                129P    315
-1.5707963267949,0.,0.,1.5707963267949,1.5707963267949,              129P    316
3.14159265358979,3.14159265358979,3.14159265358979,1.,1.,            129P    317
0.707106781186548,0.707106781186548,1.,1.,0.707106781186548,         129P    318
0.707106781186548,1.,1.,0.707106781186548,0.707106781186548,1.,      129P    319
1.,0.707106781186548,0.707106781186548,1.,1.,-12.,                   129P    320
5.76794919243112,0.,-12.,-5.5,0.,-12.,5.76794919243112,12.,-12.,     129P    321
-5.5,12.,0.,5.76794919243112,12.,0.,-5.5,12.,12.,                    129P    322
5.76794919243112,12.,12.,-5.5,12.,12.,5.76794919243112,0.,12.,       129P    323
-5.5,0.,12.,5.76794919243112,-12.,12.,-5.5,-12.,0.,                  129P    324
5.76794919243112,-12.,0.,-5.5,-12.,-12.,5.76794919243112,-12.,       129P    325
-12.,-5.5,-12.,-12.,5.76794919243112,0.,-12.,-5.5,0.,                129P    326
-0.458333333333333,0.480662432702593,-3.14159265358979,              129P    327
3.14159265358979;                                                    129P    328
128,2,8,2,2,0,1,0,0,1,-1.0471975511966,-1.0471975511966,             131P    329
-1.0471975511966,0.,0.,0.,-3.14159265358979,-3.14159265358979,       131P    330
-3.14159265358979,-1.5707963267949,-1.5707963267949,0.,0.,           131P    331
1.5707963267949,1.5707963267949,3.14159265358979,                    131P    332
3.14159265358979,3.14159265358979,1.,0.866025403784439,1.,           131P    333
0.707106781186548,0.612372435695795,0.707106781186548,1.,            131P    334
0.866025403784439,1.,0.707106781186548,0.612372435695795,            131P    335
0.707106781186548,1.,0.866025403784439,1.,0.707106781186548,         131P    336
0.612372435695795,0.707106781186548,1.,0.866025403784439,1.,         131P    337
0.707106781186548,0.612372435695795,0.707106781186548,1.,            131P    338
0.866025403784439,1.,11.,7.5,0.,12.,6.92264973081038,0.,12.,         131P    339
5.76794919243112,0.,11.,7.5,-11.,12.,6.92264973081038,-12.,12.,      131P    340
5.76794919243112,-12.,0.,7.5,-11.,0.,6.92264973081038,-12.,0.,       131P    341
5.76794919243112,-12.,-11.,7.5,-11.,-12.,6.92264973081038,-12.,      131P    342
-12.,5.76794919243112,-12.,-11.,7.5,0.,-12.,6.92264973081038,0.,     131P    343
-12.,5.76794919243112,0.,-11.,7.5,11.,-12.,6.92264973081038,12.,     131P    344
-12.,5.76794919243112,12.,0.,7.5,11.,0.,6.92264973081038,12.,0.,     131P    345
5.76794919243112,12.,11.,7.5,11.,12.,6.92264973081038,12.,12.,       131P    346
5.76794919243112,12.,11.,7.5,0.,12.,6.92264973081038,0.,12.,         131P    347
5.76794919243112,0.,-1.0471975511966,0.,-3.14159265358979,           131P    348
3.14159265358979;                                                    131P    349
128,2,8,2,2,0,1,0,0,1,-3.14159265358979,-3.14159265358979,           133P    350
-3.14159265358979,-1.5707963267949,-1.5707963267949,                 133P    351
-1.5707963267949,-3.14159265358979,-3.14159265358979,                133P    352
-3.14159265358979,-1.5707963267949,-1.5707963267949,0.,0.,           133P    353
1.5707963267949,1.5707963267949,3.14159265358979,                    133P    354
3.14159265358979,3.14159265358979,1.,0.707106781186548,1.,           133P    355
0.707106781186548,0.5,0.707106781186548,1.,0.707106781186548,1.,     133P    356
0.707106781186548,0.5,0.707106781186548,1.,0.707106781186548,1.,     133P    357
0.707106781186548,0.5,0.707106781186548,1.,0.707106781186548,1.,     133P    358
0.707106781186548,0.5,0.707106781186548,1.,0.707106781186548,1.,     133P    359
0.,7.5,11.,0.,7.5,9.,0.,5.5,9.,-11.,7.5,11.,-9.,7.5,9.,-9.,5.5,      133P    360
9.,-11.,7.5,0.,-9.,7.5,0.,-9.,5.5,0.,-11.,7.5,-11.,-9.,7.5,-9.,      133P    361
-9.,5.5,-9.,0.,7.5,-11.,0.,7.5,-9.,0.,5.5,-9.,11.,7.5,-11.,9.,       133P    362
7.5,-9.,9.,5.5,-9.,11.,7.5,0.,9.,7.5,0.,9.,5.5,0.,11.,7.5,11.,       133P    363
9.,7.5,9.,9.,5.5,9.,0.,7.5,11.,0.,7.5,9.,0.,5.5,9.,                  133P    364
-3.14159265358979,-1.5707963267949,-3.14159265358979,                133P    365
3.14159265358979;                                                    133P    366
128,1,8,1,2,0,1,0,0,1,0.,0.,0.611111111111111,0.611111111111111,     135P    367
-3.14159265358979,-3.14159265358979,-3.14159265358979,               135P    368
-1.5707963267949,-1.5707963267949,0.,0.,1.5707963267949,             135P    369
1.5707963267949,3.14159265358979,3.14159265358979,                   135P    370
3.14159265358979,1.,1.,0.707106781186548,0.707106781186548,1.,       135P    371
1.,0.707106781186548,0.707106781186548,1.,1.,0.707106781186548,      135P    372
0.707106781186548,1.,1.,0.707106781186548,0.707106781186548,1.,      135P    373
1.,-9.,0.,0.,-9.,5.5,0.,-9.,0.,9.,-9.,5.5,9.,0.,0.,9.,0.,5.5,9.,     135P    374
9.,0.,9.,9.,5.5,9.,9.,0.,0.,9.,5.5,0.,9.,0.,-9.,9.,5.5,-9.,0.,       135P    375
0.,-9.,0.,5.5,-9.,-9.,0.,-9.,-9.,5.5,-9.,-9.,0.,0.,-9.,5.5,0.,       135P    376
0.,0.611111111111111,-3.14159265358979,3.14159265358979;             135P    377
128,1,8,1,2,0,1,0,0,1,-0.21297795164292,-0.21297795164292,5.,5.,     137P    378
-3.14159265358979,-3.14159265358979,-3.14159265358979,               137P    379
-1.5707963267949,-1.5707963267949,0.,0.,1.5707963267949,             137P    380
1.5707963267949,3.14159265358979,3.14159265358979,                   137P    381
3.14159265358979,1.,1.,0.707106781186548,0.707106781186548,1.,       137P    382
1.,0.707106781186548,0.707106781186548,1.,1.,0.707106781186548,      137P    383
0.707106781186548,1.,1.,0.707106781186548,0.707106781186548,1.,      137P    384
1.,-4.942,0.,37.,-4.942,0.,10.9351102417854,-4.942,-4.942,37.,       137P    385
-4.942,-4.942,10.9351102417854,0.,-4.942,37.,0.,-4.942,              137P    386
10.9351102417854,4.942,-4.942,37.,4.942,-4.942,10.9351102417854,     137P    387
4.942,0.,37.,4.942,0.,10.9351102417854,4.942,4.942,37.,4.942,        137P    388
4.942,10.9351102417854,0.,4.942,37.,0.,4.942,10.9351102417854,       137P    389
-4.942,4.942,37.,-4.942,4.942,10.9351102417854,-4.942,0.,37.,        137P    390
-4.942,0.,10.9351102417854,-0.21297795164292,5.,                     137P    391
-3.14159265358979,3.14159265358979;                                  137P    392
128,1,1,1,1,0,0,1,0,0,-0.4952,-0.4952,0.4952,0.4952,-0.4952,         139P    393
-0.4952,0.4952,0.4952,1.,1.,1.,1.,-4.952,-4.952,37.,4.952,           139P    394
-4.952,37.,-4.952,4.952,37.,4.952,4.952,37.,-0.4952,0.4952,          139P    395
-0.4952,0.4952;                                                      139P    396
128,2,8,2,2,0,1,0,0,1,-0.981765356578623,-0.981765356578623,         141P    397
-0.981765356578623,0.,0.,0.,-3.14159265358979,-3.14159265358979,     141P    398
-3.14159265358979,-1.5707963267949,-1.5707963267949,0.,0.,           141P    399
1.5707963267949,1.5707963267949,3.14159265358979,                    141P    400
3.14159265358979,3.14159265358979,1.,0.881917103688196,1.,           141P    401
0.707106781186548,0.623609564462323,0.707106781186548,1.,            141P    402
0.881917103688196,1.,0.707106781186548,0.623609564462323,            141P    403
0.707106781186548,1.,0.881917103688196,1.,0.707106781186548,         141P    404
0.623609564462323,0.707106781186548,1.,0.881917103688196,1.,         141P    405
0.707106781186548,0.623609564462323,0.707106781186548,1.,            141P    406
0.881917103688196,1.,0.,0.,9.,0.,-4.81070235442364,9.,0.,            141P    407
-7.48331477354788,5.,9.,0.,9.,9.,-4.81070235442364,9.,5.,            141P    408
-7.48331477354788,5.,9.,0.,0.,9.,-4.81070235442364,0.,5.,            141P    409
-7.48331477354788,0.,9.,0.,-9.,9.,-4.81070235442364,-9.,5.,          141P    410
-7.48331477354788,-5.,0.,0.,-9.,0.,-4.81070235442364,-9.,0.,         141P    411
-7.48331477354788,-5.,-9.,0.,-9.,-9.,-4.81070235442364,-9.,-5.,      141P    412
-7.48331477354788,-5.,-9.,0.,0.,-9.,-4.81070235442364,0.,-5.,        141P    413
-7.48331477354788,0.,-9.,0.,9.,-9.,-4.81070235442364,9.,-5.,         141P    414
-7.48331477354788,5.,0.,0.,9.,0.,-4.81070235442364,9.,0.,            141P    415
-7.48331477354788,5.,-0.981765356578623,0.,-3.14159265358979,        141P    416
3.14159265358979;                                                    141P    417
128,1,8,1,2,0,1,0,0,1,-1.49666295470958,-1.49666295470958,           143P    418
1.49666295470958,1.49666295470958,-3.14159265358979,                 143P    419
-3.14159265358979,-3.14159265358979,-1.5707963267949,                143P    420
-1.5707963267949,0.,0.,1.5707963267949,1.5707963267949,              143P    421
3.14159265358979,3.14159265358979,3.14159265358979,1.,1.,            143P    422
0.707106781186548,0.707106781186548,1.,1.,0.707106781186548,         143P    423
0.707106781186548,1.,1.,0.707106781186548,0.707106781186548,1.,      143P    424
1.,0.707106781186548,0.707106781186548,1.,1.,-5.,                    143P    425
-7.48331477354788,0.,-5.,7.48331477354788,0.,-5.,                    143P    426
-7.48331477354788,5.,-5.,7.48331477354788,5.,0.,                     143P    427
-7.48331477354788,5.,0.,7.48331477354788,5.,5.,                      143P    428
-7.48331477354788,5.,5.,7.48331477354788,5.,5.,                      143P    429
-7.48331477354788,0.,5.,7.48331477354788,0.,5.,                      143P    430
-7.48331477354788,-5.,5.,7.48331477354788,-5.,0.,                    143P    431
-7.48331477354788,-5.,0.,7.48331477354788,-5.,-5.,                   143P    432
-7.48331477354788,-5.,-5.,7.48331477354788,-5.,-5.,                  143P    433
-7.48331477354788,0.,-5.,7.48331477354788,0.,-1.49666295470958,      143P    434
1.49666295470958,-3.14159265358979,3.14159265358979;                 143P    435
128,2,8,2,2,0,1,0,0,1,0.,0.,0.,0.981765356578623,                    145P    436
0.981765356578623,0.981765356578623,-3.14159265358979,               145P    437
-3.14159265358979,-3.14159265358979,-1.5707963267949,                145P    438
-1.5707963267949,0.,0.,1.5707963267949,1.5707963267949,              145P    439
3.14159265358979,3.14159265358979,3.14159265358979,1.,               145P    440
0.881917103688196,1.,0.707106781186548,0.623609564462323,            145P    441
0.707106781186548,1.,0.881917103688196,1.,0.707106781186548,         145P    442
0.623609564462323,0.707106781186548,1.,0.881917103688196,1.,         145P    443
0.707106781186548,0.623609564462323,0.707106781186548,1.,            145P    444
0.881917103688196,1.,0.707106781186548,0.623609564462323,            145P    445
0.707106781186548,1.,0.881917103688196,1.,0.,7.48331477354788,       145P    446
5.,0.,4.81070235442364,9.,0.,0.,9.,5.,7.48331477354788,5.,9.,        145P    447
4.81070235442364,9.,9.,0.,9.,5.,7.48331477354788,0.,9.,              145P    448
4.81070235442364,0.,9.,0.,0.,5.,7.48331477354788,-5.,9.,             145P    449
4.81070235442364,-9.,9.,0.,-9.,0.,7.48331477354788,-5.,0.,           145P    450
4.81070235442364,-9.,0.,0.,-9.,-5.,7.48331477354788,-5.,-9.,         145P    451
4.81070235442364,-9.,-9.,0.,-9.,-5.,7.48331477354788,0.,-9.,         145P    452
4.81070235442364,0.,-9.,0.,0.,-5.,7.48331477354788,5.,-9.,           145P    453
4.81070235442364,9.,-9.,0.,9.,0.,7.48331477354788,5.,0.,             145P    454
4.81070235442364,9.,0.,0.,9.,0.,0.981765356578623,                   145P    455
-3.14159265358979,3.14159265358979;                                  145P    456
502,23,9.,-5.76794919243112,-1.10218211923262D-15,-9.,               147P    457
-5.76794919243112,0.,10.,-7.5,0.,0.,-7.5,10.,-10.,-7.5,              147P    458
1.22464679914735D-15,0.,0.,9.,-9.,0.,0.,0.,-5.5,12.,-12.,-5.5,       147P    459
-1.46957615897682D-15,12.,5.76794919243112,                          147P    460
-1.46957615897682D-15,-12.,5.76794919243112,0.,4.942,                147P    461
-2.77555756156289D-16,10.9351102417854,-4.942,0.,                    147P    462
10.9351102417854,11.,7.5,0.,0.,7.5,11.,-11.,7.5,                     147P    463
1.34711147906209D-15,0.,5.5,9.,-9.,5.5,-1.10218211923262D-15,        147P    464
-4.942,6.05220448138622D-16,37.,0.,-7.48331477354788,5.,-5.,         147P    465
-7.48331477354788,6.12323399573677D-16,-5.,7.48331477354788,         147P    466
-6.12323399573677D-16,0.,7.48331477354788,5.;                        147P    467
504,34,55,147,1,147,2,57,147,2,147,1,59,147,1,147,3,61,147,4,        149P    468
147,3,63,147,5,147,4,65,147,3,147,5,67,147,6,147,7,69,147,7,147,     149P    469
2,71,147,7,147,6,73,147,4,147,8,75,147,8,147,9,77,147,9,147,8,       149P    470
79,147,10,147,11,81,147,11,147,10,83,147,11,147,9,85,147,12,147,     149P    471
13,87,147,13,147,12,89,147,10,147,14,91,147,15,147,14,93,147,16,     149P    472
147,15,95,147,14,147,16,97,147,15,147,17,99,147,17,147,18,101,       149P    473
147,18,147,17,103,147,18,147,7,105,147,19,147,19,107,147,19,147,     149P    474
13,109,147,6,147,20,111,147,20,147,21,113,147,21,147,20,115,147,     149P    475
21,147,22,117,147,23,147,22,119,147,22,147,23,121,147,23,147,6;      149P    476
406,1,5HBody1;                                                       151P    477
314,62.7450980392157,62.7450980392157,62.7450980392157,13HSteel      153P    478
- Satin;                                                             153P    479
S      1G      3D    154P    479                                        T      1
